<svg xmlns="http://www.w3.org/2000/svg" viewBox="0 0 500 500">
  <path fill="currentColor" fill-rule="nonzero" d="M166.827 19.829C135.251 21.699 107.072 40.278 92.913 68.571c-5.469 10.989-8.602 23-9.17 35.277-.152 2.653-.202 41.202-.152 120.737.051 109.873.102 117.022.392 119.687 1.427 11.747 4.092 20.866 8.93 30.592 8.589 17.316 22.684 31.299 40.064 39.761 9.473 4.699 19.047 7.452 30.288 8.74 2.868.341 9.726.341 122.366.341 112.981 0 119.448 0 122.366-.341 11.582-1.338 20.966-4.041 30.78-8.929 17.317-8.589 31.312-22.685 39.762-40.065 4.698-9.473 7.452-19.047 8.74-30.288.341-2.867.341-9.726.341-122.075 0-126.003.051-120.37-.884-126.685-3.6-24.693-17.468-46.708-38.195-60.602a69.461 69.461 0 0 0-9.562-5.621c-10.925-5.456-22.848-8.614-35.037-9.271-4.143-.252-232.871-.252-237.115 0Zm136.272 68.282c31.728 2.362 60.185 20.385 75.885 48.059 1.869 3.246 5.128 10.054 6.568 13.704 4.976 12.631 7.982 27.245 9.713 47.365.442 4.8.631 24.819.29 30.402-1.578 27.383-7.894 52.834-19.135 76.769a128.67 128.67 0 0 1-10.117 18.15c-11.747 16.483-29.303 29.455-43.955 32.461-11.304 2.324-20.234-1.263-25.867-10.445a42.032 42.032 0 0 1-3.158-6.669c-.442-1.226-.783-1.63-1.086-1.137-.038.101-1.137.947-2.413 1.932-11.999 9.12-25.513 14.841-38.637 16.332-3.448.379-10.849.29-13.704-.202-9.031-1.529-16.243-5.57-20.828-11.747a34.411 34.411 0 0 1-4.143-7.982c-1.477-4.547-1.97-10.269-1.477-15.498.682-6.947 2.854-14.955 6.113-22.306.24-.467.429-.972.543-1.478a24.767 24.767 0 0 0-1.731.695c-4.584 2.021-11.342 3.852-16.52 4.433-10.661 1.238-18.012-1.768-21.662-8.828-1.339-2.564-1.882-4.926-2.021-8.539-.101-3.296.101-5.431.834-8.285.745-2.905 1.528-4.636 5.09-11.242 4.825-9.094 6.214-11.948 8.033-17.026 4.143-11.355 6.063-21.762 8.69-47.415 1.869-18.555 3.208-27.03 5.469-34.936.354-1.137.985-3.499 1.44-5.23 10.054-38.826 39.319-65.464 77.653-70.744 1.629-.202 3.903-.505 5.04-.593 3.006-.202 12.125-.253 15.093 0Z"/>
  <path fill="currentColor" fill-rule="nonzero" d="M295.155 162.808c-1.794.48-3.436 1.427-4.737 2.766-2.223 2.274-3.701 5.57-4.496 10.155-.493 2.969-.733 7.604-.493 10.964.354 5.128 1.036 8.083 2.577 11.292 1.616 3.309 3.839 5.38 6.896 6.264 1.339.392 4.837.392 6.315 0 5.33-1.427 8.88-6.707 10.117-15.043.341-4.004.291-8.02-.151-11.999-.783-4.774-2.312-8.526-4.535-10.9-2.008-2.438-5.027-3.802-8.184-3.701-1.099-.114-2.223-.05-3.309.202Zm45.735-.101c-1.667.467-3.233 1.276-4.585 2.375-2.071 1.819-3.701 5.077-4.597 9.069-.632 2.905-.885 5.38-.885 9.384 0 4.042.253 6.454.885 9.372 1.389 6.265 4.446 10.206 8.689 11.342 1.529.392 4.787.392 6.316 0 5.077-1.326 8.589-6.315 9.864-14.02.442-2.501.594-8.184.303-10.988-.795-7.958-3.7-13.376-8.197-15.536a17.769 17.769 0 0 0-2.766-.998c-1.667-.252-3.36-.252-5.027 0Z"/>
</svg>
