<svg xmlns="http://www.w3.org/2000/svg" viewBox="0 0 500 500">
  <g style="" transform="matrix(0.438038, 0, 0, 0.438038, -92.835669, 201.648709)">
    <path d="M 790.462 -169.42 C 790.663 -170.25 790.763 -170.67 790.992 -170.98 C 791.193 -171.25 791.465 -171.46 791.777 -171.59 C 792.131 -171.74 792.557 -171.74 793.41 -171.74 L 1057.29 -171.74 C 1100.39 -171.74 1135.33 -135.64 1135.33 -91.1 L 1135.33 221.988 C 1135.33 266.527 1100.39 302.633 1057.29 302.633 L 680.109 302.633 C 678.794 302.633 678.137 302.633 677.685 302.36 C 677.289 302.122 676.994 301.747 676.856 301.306 C 676.697 300.803 676.852 300.164 677.161 298.886 L 790.462 -169.42 Z" fill="currentColor" style="stroke-width: 1;"></path>
    <path d="M 720.966 -78.133 C 721.272 -79.41 721.426 -80.048 721.267 -80.55 C 721.127 -80.99 720.832 -81.364 720.437 -81.602 C 719.986 -81.874 719.329 -81.874 718.017 -81.874 L 507.372 -81.874 C 464.637 -81.874 429.994 -45.768 429.994 -1.23 L 429.994 311.858 C 429.994 356.397 464.637 392.503 507.372 392.503 L 768.973 392.503 C 769.827 392.503 770.255 392.503 770.609 392.353 C 770.922 392.22 771.193 392.006 771.395 391.733 C 771.624 391.423 771.723 391.008 771.923 390.177 L 781.054 352.111 C 781.36 350.834 781.513 350.196 781.354 349.694 C 781.215 349.254 780.92 348.88 780.524 348.641 C 780.073 348.37 779.417 348.37 778.104 348.37 L 622.507 348.37 C 621.194 348.37 620.537 348.37 620.086 348.098 C 619.691 347.86 619.396 347.486 619.256 347.046 C 619.098 346.544 619.251 345.906 619.557 344.629 L 720.966 -78.133 Z" fill="currentColor" style="stroke-width: 1;"></path>
  </g>
</svg>
